<svg width="50" height="50" viewBox="0 0 50 50" fill="none" xmlns="http://www.w3.org/2000/svg">
<path d="M24.9996 0C24.4496 0 23.9059 0.01875 23.3652 0.053125L23.5652 3.17188C24.5205 3.11014 25.4787 3.11014 26.434 3.17188L26.634 0.053125C26.0899 0.0178476 25.5448 0.000130037 24.9996 0V0ZM20.1246 0.475C19.0434 0.690625 17.9871 0.975 16.9621 1.31875L17.9652 4.28125C18.8621 3.975 19.784 3.72813 20.7277 3.54063L20.1246 0.478125V0.475ZM33.0371 1.32187C32.0037 0.971511 30.9483 0.68965 29.8777 0.478125L29.2715 3.54063C30.2152 3.72813 31.1371 3.97813 32.034 4.28125L33.0371 1.32187ZM38.8902 4.2125C37.9832 3.60545 37.0375 3.05845 36.059 2.575L34.6746 5.375C35.534 5.8 36.3621 6.28125 37.1527 6.80937L38.8902 4.2125ZM13.9371 2.575C12.9559 3.05938 12.0121 3.60625 11.109 4.2125L12.8465 6.80625C13.6407 6.27611 14.4685 5.79803 15.3246 5.375L13.9371 2.575ZM8.51523 6.20312C7.69648 6.92188 6.92148 7.69687 6.20273 8.51562L8.55273 10.5781C9.18398 9.85938 9.85898 9.18437 10.5777 8.55313L8.51523 6.20312ZM43.7965 8.51562C43.0766 7.6955 42.3041 6.92304 41.484 6.20312L39.4215 8.55313C40.1402 9.18437 40.8184 9.85938 41.4465 10.5781L43.7965 8.51562ZM47.4246 13.9375C46.9412 12.96 46.3942 12.0153 45.7871 11.1094L43.1934 12.8469C43.7215 13.6375 44.1996 14.4656 44.6246 15.325L47.4246 13.9406V13.9375ZM4.21211 11.1094C3.60586 12.0125 3.05586 12.9563 2.57461 13.9406L5.37461 15.325C5.79961 14.4656 6.28086 13.6375 6.80898 12.8469L4.21211 11.1094ZM1.32148 16.9625C0.971111 17.9959 0.68925 19.0514 0.477734 20.1219L3.54023 20.7281C3.72773 19.7844 3.97773 18.8625 4.28086 17.9656L1.32148 16.9625ZM49.5246 20.125C49.3132 19.0534 49.0314 17.997 48.6809 16.9625L45.7184 17.9656C46.0246 18.8625 46.2715 19.7844 46.459 20.7281L49.5215 20.1219L49.5246 20.125ZM0.0527344 23.3656C-0.0175781 24.4541 -0.0175781 25.5459 0.0527344 26.6344L3.17148 26.4344C3.10975 25.4791 3.10975 24.5209 3.17148 23.5656L0.0527344 23.3656ZM49.9996 25C49.9995 24.4548 49.9818 23.9097 49.9465 23.3656L46.8277 23.5656C46.8895 24.5209 46.8895 25.4791 46.8277 26.4344L49.9465 26.6344C49.9818 26.0903 49.9995 25.5452 49.9996 25ZM0.474609 29.875C0.690234 30.9563 0.974609 32.0125 1.31836 33.0375L4.28086 32.0344C3.9735 31.1308 3.72609 30.208 3.54023 29.2719L0.477734 29.8781L0.474609 29.875ZM48.6777 33.0375C49.0277 32.0125 49.309 30.9562 49.5215 29.8781L46.459 29.2719C46.2715 30.2156 46.0215 31.1375 45.7184 32.0344L48.6777 33.0375ZM2.57461 36.0625C3.05818 37.0399 3.60518 37.9846 4.21211 38.8906L6.80586 37.1531C6.27519 36.3592 5.79708 35.5314 5.37461 34.675L2.57461 36.0594V36.0625ZM45.7871 38.8906C46.3934 37.9875 46.9434 37.0437 47.4246 36.0594L44.6246 34.675C44.1996 35.5344 43.7184 36.3625 43.1902 37.1531L45.7871 38.8906ZM6.20273 41.4844C6.92148 42.3031 7.69648 43.0781 8.51523 43.7969L10.5777 41.4469C9.85951 40.8165 9.18308 40.1401 8.55273 39.4219L6.20273 41.4844ZM41.484 43.7969C42.3027 43.0781 43.0777 42.3031 43.7965 41.4844L41.4465 39.4219C40.8184 40.1406 40.1402 40.8187 39.4215 41.4469L41.484 43.7969ZM36.0621 47.425C37.0434 46.9406 37.9871 46.3938 38.8902 45.7875L37.1527 43.1937C36.3585 43.7239 35.5307 44.202 34.6746 44.625L36.059 47.425H36.0621ZM11.109 45.7875C12.0121 46.3938 12.9559 46.9437 13.9402 47.425L15.3246 44.625C14.4681 44.2015 13.6403 43.7224 12.8465 43.1906L11.109 45.7875ZM16.9621 48.6781C17.9871 49.0281 19.0434 49.3094 20.1215 49.5219L20.7277 46.4594C19.7916 46.2734 18.8688 46.026 17.9652 45.7188L16.9621 48.6781ZM29.8746 49.525C30.9462 49.3136 32.0027 49.0318 33.0371 48.6813L32.034 45.7188C31.1304 46.026 30.2076 46.2734 29.2715 46.4594L29.8777 49.5219L29.8746 49.525ZM23.3652 49.9469C24.4537 50.0173 25.5455 50.0173 26.634 49.9469L26.434 46.8281C25.4787 46.8899 24.5205 46.8899 23.5652 46.8281L23.3652 49.9469ZM26.5621 14.0625C26.5621 13.6481 26.3975 13.2507 26.1045 12.9576C25.8114 12.6646 25.414 12.5 24.9996 12.5C24.5852 12.5 24.1878 12.6646 23.8948 12.9576C23.6017 13.2507 23.4371 13.6481 23.4371 14.0625V23.4375H14.0621C13.6477 23.4375 13.2503 23.6021 12.9573 23.8951C12.6642 24.1882 12.4996 24.5856 12.4996 25C12.4996 25.4144 12.6642 25.8118 12.9573 26.1049C13.2503 26.3979 13.6477 26.5625 14.0621 26.5625H23.4371V35.9375C23.4371 36.3519 23.6017 36.7493 23.8948 37.0424C24.1878 37.3354 24.5852 37.5 24.9996 37.5C25.414 37.5 25.8114 37.3354 26.1045 37.0424C26.3975 36.7493 26.5621 36.3519 26.5621 35.9375V26.5625H35.9371C36.3515 26.5625 36.7489 26.3979 37.042 26.1049C37.335 25.8118 37.4996 25.4144 37.4996 25C37.4996 24.5856 37.335 24.1882 37.042 23.8951C36.7489 23.6021 36.3515 23.4375 35.9371 23.4375H26.5621V14.0625Z" fill="#FF9900"/>
</svg>
