<svg width="100" height="100" viewBox="0 0 100 100" fill="none" xmlns="http://www.w3.org/2000/svg">
<path d="M72.0875 43.75H96.6625C96.9594 43.7501 97.2501 43.8348 97.5006 43.9942C97.7511 44.1536 97.951 44.381 98.0769 44.6499C98.2029 44.9188 98.2496 45.2179 98.2116 45.5124C98.1736 45.8069 98.0525 46.0844 97.8625 46.3125L85.575 61.0625C85.4284 61.2384 85.2449 61.3798 85.0375 61.4769C84.8301 61.574 84.604 61.6243 84.375 61.6243C84.146 61.6243 83.9199 61.574 83.7125 61.4769C83.5051 61.3798 83.3216 61.2384 83.175 61.0625L70.8875 46.3125C70.6975 46.0844 70.5764 45.8069 70.5384 45.5124C70.5004 45.2179 70.5472 44.9188 70.6731 44.6499C70.799 44.381 70.9989 44.1536 71.2494 43.9942C71.4999 43.8348 71.7906 43.7501 72.0875 43.75V43.75ZM3.3375 56.25H27.9125C28.2094 56.2499 28.5001 56.1652 28.7506 56.0059C29.0011 55.8465 29.201 55.6191 29.3269 55.3502C29.4529 55.0813 29.4996 54.7821 29.4616 54.4877C29.4236 54.1932 29.3025 53.9157 29.1125 53.6875L16.825 38.9375C16.6784 38.7617 16.4949 38.6202 16.2875 38.5231C16.0801 38.4261 15.854 38.3757 15.625 38.3757C15.396 38.3757 15.1699 38.4261 14.9625 38.5231C14.7551 38.6202 14.5716 38.7617 14.425 38.9375L2.1375 53.6875C1.94749 53.9157 1.8264 54.1932 1.78843 54.4877C1.75045 54.7821 1.79715 55.0813 1.92306 55.3502C2.04897 55.6191 2.24889 55.8465 2.49939 56.0059C2.74989 56.1652 3.04061 56.2499 3.3375 56.25V56.25Z" fill="#FF9900"/>
<path fill-rule="evenodd" clip-rule="evenodd" d="M50 18.75C40.3 18.75 31.625 23.1687 25.8938 30.1125C25.6378 30.4442 25.3178 30.7211 24.9528 30.9266C24.5877 31.1322 24.185 31.2622 23.7687 31.309C23.3524 31.3558 22.9309 31.3184 22.5293 31.1991C22.1277 31.0797 21.7542 30.8808 21.431 30.6142C21.1078 30.3476 20.8415 30.0188 20.648 29.6472C20.4544 29.2756 20.3376 28.8689 20.3044 28.4513C20.2712 28.0337 20.3223 27.6136 20.4547 27.2161C20.587 26.8186 20.798 26.4518 21.075 26.1375C25.6512 20.597 31.7224 16.4876 38.5666 14.2978C45.4109 12.1081 52.74 11.9303 59.6823 13.7855C66.6247 15.6408 72.8881 19.451 77.7276 24.763C82.567 30.0751 85.7789 36.6653 86.9812 43.75H80.625C79.182 36.6925 75.3461 30.3499 69.7658 25.7946C64.1856 21.2393 57.2035 18.7509 50 18.75V18.75ZM19.375 56.25C20.5582 62.0289 23.3522 67.3551 27.4342 71.6134C31.5163 75.8716 36.7197 78.8881 42.4435 80.3143C48.1673 81.7405 54.1778 81.5182 59.7806 79.6732C65.3834 77.8281 70.3499 74.4356 74.1062 69.8875C74.3622 69.5558 74.6822 69.2789 75.0472 69.0734C75.4123 68.8678 75.815 68.7378 76.2313 68.691C76.6476 68.6441 77.0691 68.6815 77.4707 68.8009C77.8723 68.9202 78.2458 69.1191 78.569 69.3857C78.8922 69.6523 79.1585 69.9812 79.352 70.3528C79.5456 70.7243 79.6624 71.131 79.6956 71.5487C79.7288 71.9663 79.6777 72.3864 79.5453 72.7839C79.413 73.1814 79.202 73.5482 78.925 73.8625C74.3488 79.4029 68.2776 83.5124 61.4333 85.7021C54.5891 87.8919 47.26 88.0697 40.3177 86.2144C33.3753 84.3592 27.1119 80.549 22.2724 75.2369C17.433 69.9249 14.2211 63.3347 13.0188 56.25H19.375Z" fill="#FF9900"/>
</svg>
