<svg width="289" height="157" viewBox="0 0 289 157" fill="none" xmlns="http://www.w3.org/2000/svg">
<circle cx="144.5" cy="78.5" r="77.5" stroke="#FF9900" stroke-width="2"/>
<circle cx="144.5" cy="78.5" r="20.98" stroke="#FF9900" stroke-width="2"/>
<rect y="63" width="289" height="30" fill="#1E1E1E"/>
<g filter="url(#filter0_d_2_9)">
<path d="M23.84 87L23.144 84.672H17.36L16.664 87H11.24L17.264 70.488H23.432L29.456 87H23.84ZM18.464 80.976H22.04L20.312 75.096H20.216L18.464 80.976ZM43.4557 70.488H48.7597V82.776H57.2317V87H43.4557V70.488ZM82.4555 70.488C83.2875 70.488 84.0475 70.664 84.7355 71.016C85.4395 71.352 85.9915 71.832 86.3915 72.456C86.8075 73.08 87.0155 73.776 87.0155 74.544C87.0155 76.576 86.0955 77.856 84.2555 78.384V78.48C86.3515 78.96 87.3995 80.336 87.3995 82.608C87.3995 83.472 87.1835 84.24 86.7515 84.912C86.3355 85.568 85.7595 86.08 85.0235 86.448C84.2875 86.816 83.4795 87 82.5995 87H71.4635V70.488H82.4555ZM76.7675 76.92H80.4155C80.7675 76.92 81.0555 76.8 81.2795 76.56C81.5195 76.304 81.6395 75.992 81.6395 75.624V75.384C81.6395 75.032 81.5195 74.736 81.2795 74.496C81.0395 74.24 80.7515 74.112 80.4155 74.112H76.7675V76.92ZM76.7675 83.16H80.7995C81.1515 83.16 81.4395 83.04 81.6635 82.8C81.9035 82.544 82.0235 82.232 82.0235 81.864V81.624C82.0235 81.256 81.9035 80.952 81.6635 80.712C81.4395 80.456 81.1515 80.328 80.7995 80.328H76.7675V83.16ZM117.95 80.352C117.95 82.608 117.238 84.328 115.814 85.512C114.39 86.696 112.366 87.288 109.742 87.288C107.118 87.288 105.086 86.696 103.646 85.512C102.222 84.328 101.51 82.608 101.51 80.352V70.488H106.814V80.28C106.814 81.208 107.062 81.952 107.558 82.512C108.054 83.056 108.774 83.328 109.718 83.328C110.662 83.328 111.382 83.048 111.878 82.488C112.39 81.928 112.646 81.192 112.646 80.28V70.488H117.95V80.352ZM147.687 87V81.048C147.687 80.312 147.711 79.56 147.759 78.792C147.823 78.008 147.887 77.352 147.951 76.824C148.015 76.296 148.055 75.96 148.071 75.816H147.975L144.927 87H140.775L137.703 75.84H137.607C137.623 75.984 137.663 76.32 137.727 76.848C137.807 77.36 137.879 78.008 137.943 78.792C138.007 79.56 138.039 80.312 138.039 81.048V87H133.167V70.488H140.655L143.151 80.016H143.247L145.719 70.488H152.943V87H147.687ZM175.103 70.2C177.215 70.2 178.951 70.632 180.311 71.496C181.671 72.344 182.367 73.608 182.399 75.288V75.576H177.431V75.48C177.431 75 177.255 74.6 176.903 74.28C176.551 73.96 176.015 73.8 175.295 73.8C174.591 73.8 174.047 73.904 173.663 74.112C173.295 74.32 173.111 74.576 173.111 74.88C173.111 75.312 173.367 75.632 173.879 75.84C174.391 76.048 175.215 76.264 176.351 76.488C177.679 76.76 178.767 77.048 179.615 77.352C180.479 77.64 181.231 78.12 181.871 78.792C182.511 79.464 182.839 80.376 182.855 81.528C182.855 83.48 182.191 84.928 180.863 85.872C179.551 86.816 177.791 87.288 175.583 87.288C173.007 87.288 170.999 86.856 169.559 85.992C168.135 85.128 167.423 83.6 167.423 81.408H172.439C172.439 82.24 172.655 82.8 173.087 83.088C173.519 83.36 174.191 83.496 175.103 83.496C175.775 83.496 176.327 83.424 176.759 83.28C177.207 83.136 177.431 82.84 177.431 82.392C177.431 81.992 177.183 81.696 176.687 81.504C176.207 81.296 175.415 81.08 174.311 80.856C172.967 80.568 171.855 80.272 170.975 79.968C170.095 79.648 169.327 79.128 168.671 78.408C168.015 77.688 167.687 76.712 167.687 75.48C167.687 73.672 168.383 72.344 169.775 71.496C171.183 70.632 172.959 70.2 175.103 70.2ZM206.991 74.712V87H201.687V74.712H196.263V70.488H212.391V74.712H206.991ZM226.807 70.488H241.087V74.448H232.111V76.728H239.791V80.52H232.111V83.04H241.255V87H226.807V70.488ZM271.8 75.552C271.8 76.56 271.528 77.472 270.984 78.288C270.44 79.104 269.648 79.704 268.608 80.088L272.28 87H266.328L263.4 80.976H261.432V87H256.128V70.488H266.232C267.416 70.488 268.424 70.72 269.256 71.184C270.104 71.632 270.736 72.248 271.152 73.032C271.584 73.8 271.8 74.64 271.8 75.552ZM266.4 75.768C266.4 75.336 266.256 74.976 265.968 74.688C265.68 74.4 265.328 74.256 264.912 74.256H261.432V77.304H264.912C265.328 77.304 265.68 77.16 265.968 76.872C266.256 76.568 266.4 76.2 266.4 75.768Z" fill="white"/>
</g>
<defs>
<filter id="filter0_d_2_9" x="7.24001" y="70.2" width="269.04" height="25.088" filterUnits="userSpaceOnUse" color-interpolation-filters="sRGB">
<feFlood flood-opacity="0" result="BackgroundImageFix"/>
<feColorMatrix in="SourceAlpha" type="matrix" values="0 0 0 0 0 0 0 0 0 0 0 0 0 0 0 0 0 0 127 0" result="hardAlpha"/>
<feOffset dy="4"/>
<feGaussianBlur stdDeviation="2"/>
<feComposite in2="hardAlpha" operator="out"/>
<feColorMatrix type="matrix" values="0 0 0 0 0 0 0 0 0 0 0 0 0 0 0 0 0 0 0.25 0"/>
<feBlend mode="normal" in2="BackgroundImageFix" result="effect1_dropShadow_2_9"/>
<feBlend mode="normal" in="SourceGraphic" in2="effect1_dropShadow_2_9" result="shape"/>
</filter>
</defs>
</svg>
