<svg width="31" height="31" viewBox="0 0 31 31" fill="none" xmlns="http://www.w3.org/2000/svg">
<g clip-path="url(#clip0_4_199)">
<path d="M23.5329 0.282776C23.6229 0.192559 23.7298 0.120983 23.8475 0.0721451C23.9652 0.0233076 24.0913 -0.00183105 24.2188 -0.00183105C24.3462 -0.00183105 24.4724 0.0233076 24.5901 0.0721451C24.7078 0.120983 24.8147 0.192559 24.9046 0.282776L30.7171 6.09528C30.8074 6.18526 30.8789 6.29217 30.9278 6.40986C30.9766 6.52755 31.0018 6.65373 31.0018 6.78115C31.0018 6.90858 30.9766 7.03475 30.9278 7.15244C30.8789 7.27013 30.8074 7.37704 30.7171 7.46703L11.3421 26.842C11.2492 26.9343 11.1384 27.0069 11.0166 27.0551L1.32915 30.9301C1.1531 31.0006 0.960238 31.0179 0.774478 30.9798C0.588717 30.9417 0.418225 30.8499 0.284137 30.7158C0.15005 30.5817 0.0582637 30.4112 0.020158 30.2254C-0.0179477 30.0397 -0.000697172 29.8468 0.069771 29.6708L3.94477 19.9833C3.99307 19.8615 4.06557 19.7507 4.1579 19.6578L23.5329 0.282776ZM21.7136 4.84365L26.1563 9.28634L28.6615 6.78115L24.2188 2.33846L21.7136 4.84365ZM24.7865 10.6561L20.3438 6.21346L7.75002 18.8072V19.3749H8.71877C8.9757 19.3749 9.2221 19.477 9.40378 19.6586C9.58546 19.8403 9.68752 20.0867 9.68752 20.3437V21.3124H10.6563C10.9132 21.3124 11.1596 21.4145 11.3413 21.5961C11.523 21.7778 11.625 22.0242 11.625 22.2812V23.2499H12.1927L24.7865 10.6561ZM5.87452 20.6827L5.66915 20.8881L2.70865 28.2913L10.1118 25.3308L10.3172 25.1254C10.1324 25.0564 9.97309 24.9325 9.86057 24.7705C9.74804 24.6085 9.68767 24.4159 9.68752 24.2187V23.2499H8.71877C8.46184 23.2499 8.21544 23.1478 8.03376 22.9662C7.85209 22.7845 7.75002 22.5381 7.75002 22.2812V21.3124H6.78127C6.58399 21.3123 6.39146 21.2519 6.22943 21.1394C6.06739 21.0268 5.94357 20.8675 5.87452 20.6827Z" fill="#FF9900"/>
</g>
<defs>
<clipPath id="clip0_4_199">
<rect width="31" height="31" fill="white"/>
</clipPath>
</defs>
</svg>
